# xmcd CD database file
#
# Track frame offsets:
#	150
#	31076
#	56137
#	73360
#	107560
#	189090
#	204420
#	245525
#	273721
#	296560
#	312948
#
# Disc length: 4624 seconds
#
# Revision: 0
# Processed by: cddbd v1.5.2PL0 Copyright (c) Steve Scherf et al.
# Submitted via: CDex 1.51
#
DISCID=a4120e0b
DTITLE=Andrey Klimkovsky - ElectroDinamica - CD 2
DYEAR=2006
DGENRE=New Age
TTITLE0=Avante-2005
TTITLE1=Secrets of Mars [new version]
TTITLE2=Captain's Dream
TTITLE3=SynchroSignal
TTITLE4=Dreamology - part 2 [live version]
TTITLE5=Oath
TTITLE6=LifeImitation
TTITLE7=CyberRelax II
TTITLE8=Touch of 2006 02 05
TTITLE9=The Reverse Side of Expectation
TTITLE10=Recollection of Last Life
EXTD=YEAR: 2006
EXTT0=
EXTT1=
EXTT2=
EXTT3=
EXTT4=
EXTT5=
EXTT6=
EXTT7=
EXTT8=
EXTT9=
EXTT10=
PLAYORDER=
